<svg width="156" height="40" viewBox="0 0 156 40" fill="none" xmlns="http://www.w3.org/2000/svg">
<path d="M11.584 13.5771C11.7331 13.5634 11.8845 13.58 12.0322 13.6211C12.6231 13.7855 13.1563 14.3421 13.2539 14.9199C13.3542 15.5147 13.3327 16.1306 13.1143 16.6982C12.7322 17.5447 12.1944 18.1434 11.5576 18.8066C10.803 19.5936 9.99689 20.3301 9.14453 21.0098C7.60771 22.2315 5.85241 23.426 4.6377 24.9922C4.02645 25.78 3.74559 26.7218 3.90332 27.7246C4.2217 29.7827 6.28973 30.7131 8.1748 30.7998C8.59347 30.8187 9.78873 30.5307 10.1025 30.7949C10.4986 31.1285 10.17 32.0434 9.83789 32.3955C9.0866 33.1926 7.69589 33.6025 6.62891 33.6768C5.03401 33.7898 3.45988 33.2578 2.26074 32.1992C1.00229 31.0866 0.237959 29.5184 0.135742 27.8408C-0.145149 23.4414 3.70206 21.1224 6.65137 18.7295C7.73248 17.8524 8.63799 16.8968 9.55371 15.8555C9.71722 15.6017 9.93795 15.3459 10.1182 15.0967C10.481 14.595 10.7761 13.7558 11.4365 13.6006C11.4853 13.5892 11.5345 13.5817 11.584 13.5771Z" fill="#920E0B"/>
<path d="M3.93359 7.65234C5.072 7.22646 6.92661 7.20164 8.09668 7.51855C9.38504 7.86764 11.0033 8.46602 12.2197 9.0166C13.8049 9.66915 15.7093 10.3862 17.4248 10.5176C18.2202 10.5785 19.534 10.4739 20.2432 10.6318C21.0982 11.3511 20.8533 12.5322 20.2363 13.3105C19.8924 13.7442 19.5043 13.86 18.9766 13.8965C16.0199 14.1011 13.2444 12.9474 10.5381 11.9199C9.02864 11.3454 7.32561 10.4832 5.6875 11.1221C4.19036 11.7124 3.64525 13.1686 3.76367 14.6768C3.81774 15.3068 3.95884 15.9262 4.18262 16.5176C4.26271 16.7285 4.34395 16.9171 4.44727 17.1094C4.6402 17.4684 5.40494 18.4957 4.9541 18.8779C3.92336 19.751 2.11022 18.2788 1.48047 17.4902C1.05045 17.1288 0.592982 16.1506 0.393555 15.6377C-0.213804 14.0751 -0.0938811 12.322 0.585938 10.7998C1.23511 9.34407 2.4415 8.21034 3.93359 7.65234Z" fill="url(#paint0_linear_9_68)"/>
<path d="M14.1719 1.35986C15.3631 0.387658 16.6764 -0.111035 18.2148 0.0209961C19.8626 0.246334 21.3558 1.11109 22.3721 2.42822C22.5091 2.60506 22.715 2.89453 22.8193 3.09229C22.9597 3.26471 23.2027 3.76649 23.2969 3.96924C24.2014 5.91914 24.3501 8.14662 24.7236 10.2632C24.9302 11.4962 25.2015 12.7176 25.5352 13.9224C25.7394 14.6513 25.9853 15.3681 26.2715 16.0688C26.5024 16.6208 26.9925 17.1928 27.0654 17.7876C27.0984 18.0578 27.0195 18.2791 26.8486 18.4878C26.5091 18.9024 25.95 19.2018 25.4141 19.2358C22.9955 19.389 22.1535 13.3185 21.8623 11.5894C21.6894 10.5634 21.5143 9.52907 21.3242 8.50635C21.1589 7.61802 20.956 6.6584 20.5938 5.82861C20.4083 5.39833 20.126 5.01626 19.7695 4.7124C19.1379 4.16627 18.3922 3.93844 17.5615 4.00342C15.8732 4.13568 14.9346 5.25795 14.3945 6.77686C14.2394 7.18053 14.1769 7.73306 13.8838 8.06104C13.4869 8.5048 12.8407 8.19456 12.5225 7.82666C12.0289 7.25586 12.0463 6.25706 12.1006 5.55518C12.2213 3.99454 12.9624 2.37308 14.1719 1.35986Z" fill="url(#paint1_linear_9_68)"/>
<path d="M10.6227 21.7868C10.8651 21.7506 11.0848 21.7654 11.314 21.8577C13.3357 22.6717 14.2537 29.1804 14.6086 31.2316C14.7993 32.334 14.921 33.5812 15.3475 34.6209C15.6591 35.3805 16.2447 36.0013 17.0086 36.3135C17.785 36.6306 18.6418 36.5851 19.4074 36.2611C20.7827 35.6789 21.5532 34.4591 22.1 33.1305C22.1959 32.8977 22.3105 32.575 22.5668 32.4794C22.7118 32.4253 22.8659 32.4573 23.0026 32.5199C23.3604 32.6835 23.7319 33.0936 23.8522 33.4707C24.2136 34.6048 23.7336 35.8902 23.2194 36.892C23.1973 36.9342 23.1739 36.9754 23.1492 37.0163C22.358 38.3489 20.9948 39.4404 19.4792 39.8014C16.9094 40.4133 14.6491 39.6095 13.1688 37.3925C11.8453 35.4102 11.6809 33.329 11.3758 31.044C11.075 28.791 10.4318 26.6139 9.5145 24.5369C9.2672 23.9745 8.47345 23.2281 8.95887 22.5764C9.3267 22.0829 10.0449 21.8923 10.6227 21.7868Z" fill="url(#paint2_linear_9_68)"/>
<path d="M29.6123 7.8667C31.03 7.93361 32.3631 8.56093 33.3193 9.61084C33.9264 10.278 34.3762 11.0734 34.6348 11.938C34.8376 12.397 35.0069 13.4836 34.998 13.978C34.9295 17.7861 31.9663 19.587 29.3838 21.6812C28.7234 22.2211 28.0951 22.8004 27.5039 23.4155C27.0404 23.8919 26.523 24.522 26.1436 25.0649C25.7282 25.659 25.3898 26.3281 24.8525 26.8364C24.6938 26.9867 24.3291 27.0588 24.1113 27.0493C23.7424 27.0315 23.3955 26.8653 23.1514 26.5874C22.8075 26.1915 22.632 25.5017 22.6699 24.9858C22.8161 23.0009 26.5346 19.9645 27.9883 18.7974C28.5973 18.3083 29.2473 17.8656 29.833 17.3481C30.7339 16.5519 31.5779 15.5222 31.6465 14.27C31.7012 13.2737 31.3517 12.5165 30.6992 11.7856C29.6889 10.9726 28.9992 10.6479 27.6621 10.605C27.3084 10.5936 26.7693 10.6057 26.4346 10.5708C26.1764 10.3033 25.9074 9.96146 25.9395 9.57471C26.0541 8.19094 28.6139 7.82661 29.6123 7.8667Z" fill="#920E0B"/>
<path d="M17.651 16.2862C19.9047 16.0084 21.958 17.6081 22.2416 19.8627C22.5252 22.1172 20.9322 24.1763 18.68 24.4661C16.4195 24.7572 14.3526 23.1557 14.0679 20.8925C13.7832 18.6295 15.3889 16.5652 17.651 16.2862Z" fill="#DEB302"/>
<path d="M24.9844 28.8846C25.0167 28.8275 25.0232 28.7837 25.069 28.7814C25.3724 28.7665 25.8086 28.9376 26.0889 29.022C27.8931 29.565 29.6535 30.0147 31.0011 28.3281C31.5957 27.5837 31.6725 26.5834 31.543 25.6739C31.4709 25.1968 31.3533 24.7281 31.1915 24.2738C31.0344 23.8185 30.2906 22.4078 30.6704 21.9809C31.212 21.373 32.2226 21.9008 32.7391 22.3122C33.8973 23.23 34.6362 24.5771 34.7884 26.0477C34.9758 27.7053 34.4965 29.3695 33.4559 30.673C31.8527 32.658 29.4753 33.1673 27.1401 32.4882C26.7958 32.388 26.4315 32.4041 26.1169 32.1767C26.0856 32.1559 26.077 32.1612 26.0375 32.1589C25.7671 31.0053 25.3909 29.9942 24.9844 28.8846Z" fill="#DEB302"/>
<path d="M26.0384 32.1586C25.6863 32.2318 22.1062 30.9154 21.4625 30.7107C20.7806 30.4862 20.0879 30.297 19.3866 30.144C18.2946 29.9126 17.3031 29.7992 16.1974 29.9353C16.0035 29.959 15.6611 29.9017 15.5192 29.7579C15.3197 29.5555 15.2795 29.1919 15.269 28.917C15.2455 28.2932 15.3379 27.6932 15.7765 27.2152C16.2134 26.7391 16.902 26.6505 17.5014 26.6112C19.1609 26.5028 23.8574 27.829 24.9853 28.8843C25.3918 29.994 25.768 31.0051 26.0384 32.1586Z" fill="#920E0B"/>
<path d="M64.664 20.312C64.664 25.592 61.208 29.288 56.288 29.288C51.392 29.288 47.984 25.592 47.984 20.312C47.984 15.056 51.416 11.336 56.312 11.336C61.232 11.336 64.664 15.032 64.664 20.312ZM62.192 20.312C62.192 16.28 59.84 13.616 56.312 13.616C52.784 13.616 50.456 16.28 50.456 20.312C50.456 24.344 52.784 27.032 56.312 27.032C59.84 27.032 62.192 24.32 62.192 20.312ZM65.8003 23.144C65.8003 19.472 68.1283 16.928 71.5603 16.928C74.5123 16.928 76.5763 18.608 76.9843 21.224H74.7283C74.3443 19.736 73.1443 18.944 71.6323 18.944C69.4963 18.944 68.0323 20.576 68.0323 23.12C68.0323 25.64 69.4003 27.272 71.5363 27.272C73.1443 27.272 74.3443 26.432 74.7523 25.04H77.0083C76.5523 27.584 74.3683 29.288 71.5363 29.288C68.0803 29.288 65.8003 26.84 65.8003 23.144ZM81.9806 29H79.7246V19.16H77.4206V17.264H79.7246V13.592H81.9806V17.264H84.2846V19.16H81.9806V29ZM84.704 23.12C84.704 19.496 87.296 16.952 90.824 16.952C94.328 16.952 96.92 19.496 96.92 23.12C96.92 26.744 94.328 29.288 90.824 29.288C87.296 29.288 84.704 26.744 84.704 23.12ZM86.984 23.12C86.984 25.568 88.544 27.272 90.824 27.272C93.08 27.272 94.664 25.568 94.664 23.12C94.664 20.672 93.08 18.968 90.824 18.968C88.544 18.968 86.984 20.672 86.984 23.12ZM98.6973 34.256V17.264H100.737L100.905 19.376C101.697 17.768 103.281 16.928 105.153 16.928C108.513 16.928 110.601 19.448 110.601 23.048C110.601 26.624 108.633 29.312 105.153 29.312C103.281 29.312 101.721 28.52 100.953 27.08V34.256H98.6973ZM100.977 23.144C100.977 25.544 102.369 27.272 104.673 27.272C106.977 27.272 108.345 25.544 108.345 23.144C108.345 20.72 106.977 18.992 104.673 18.992C102.369 18.992 100.977 20.696 100.977 23.144ZM120.199 17.264H122.431V29H120.415L120.175 27.224C119.503 28.448 117.943 29.288 116.215 29.288C113.479 29.288 111.943 27.44 111.943 24.56V17.264H114.199V23.816C114.199 26.336 115.279 27.296 117.007 27.296C119.071 27.296 120.199 25.976 120.199 23.456V17.264ZM123.79 25.592H125.95C125.95 26.792 126.862 27.512 128.35 27.512C129.934 27.512 130.846 26.864 130.846 25.784C130.846 24.992 130.462 24.512 129.238 24.2L127.174 23.72C125.086 23.216 124.102 22.184 124.102 20.456C124.102 18.296 125.926 16.928 128.518 16.928C131.086 16.928 132.766 18.368 132.814 20.6H130.654C130.606 19.424 129.814 18.68 128.446 18.68C127.03 18.68 126.238 19.304 126.238 20.384C126.238 21.176 126.814 21.704 127.966 21.992L130.03 22.496C132.022 22.976 133.006 23.888 133.006 25.64C133.006 27.872 131.086 29.288 128.302 29.288C125.542 29.288 123.79 27.824 123.79 25.592ZM145.838 29L139.238 11.648H141.758L145.982 22.736C146.366 23.72 146.702 24.704 147.062 26C147.47 24.632 147.878 23.48 148.166 22.712L152.366 11.648H154.814L148.286 29H145.838Z" fill="black"/>
<defs>
<linearGradient id="paint0_linear_9_68" x1="3.13557" y1="18.0342" x2="15.1624" y2="23.7102" gradientUnits="userSpaceOnUse">
<stop stop-color="#790605"/>
<stop offset="1" stop-color="#920E0B"/>
</linearGradient>
<linearGradient id="paint1_linear_9_68" x1="11.2925" y1="5.79534" x2="27.087" y2="17.8306" gradientUnits="userSpaceOnUse">
<stop stop-color="#790605"/>
<stop offset="1" stop-color="#920E0B"/>
</linearGradient>
<linearGradient id="paint2_linear_9_68" x1="19.9195" y1="39.9884" x2="11.6677" y2="22.9929" gradientUnits="userSpaceOnUse">
<stop stop-color="#790605"/>
<stop offset="1" stop-color="#920E0B"/>
</linearGradient>
</defs>
</svg>
