<svg width="19" height="22" viewBox="0 0 19 22" fill="none" xmlns="http://www.w3.org/2000/svg">
<path d="M6.20801 7.48047C6.63346 7.37918 7.12474 7.7823 7.19531 8.20605C7.24975 8.533 7.2385 8.87155 7.12012 9.18359C6.91269 9.64921 6.62016 9.97892 6.27441 10.3438C5.86474 10.7766 5.42661 11.1818 4.96387 11.5557C4.12972 12.2275 3.17786 12.8849 2.51855 13.7461C2.18671 14.1794 2.03347 14.6974 2.11914 15.249C2.2921 16.3807 3.41435 16.8927 4.4375 16.9404C4.66458 16.9509 5.314 16.7921 5.48438 16.9375C5.69935 17.121 5.52109 17.6237 5.34082 17.8174C4.93296 18.2558 4.17786 18.4817 3.59863 18.5225C2.73289 18.5846 1.87846 18.2912 1.22754 17.709C0.544583 17.0971 0.129706 16.235 0.0742188 15.3125C-0.0782652 12.8928 2.01027 11.6169 3.61133 10.3008C4.198 9.81848 4.68957 9.29326 5.18652 8.7207C5.27523 8.58121 5.39537 8.44068 5.49316 8.30371C5.69006 8.02787 5.84978 7.56608 6.20801 7.48047Z" fill="#1E1E1E"/>
<path d="M2.13574 4.20898C2.75383 3.97481 3.76042 3.96139 4.39551 4.13574C5.09487 4.32775 5.97353 4.6562 6.63379 4.95898C7.49423 5.31785 8.52784 5.71195 9.45898 5.78418C9.89075 5.81767 10.6043 5.76077 10.9893 5.84766C11.4532 6.24328 11.3202 6.89327 10.9854 7.32129C10.7987 7.55964 10.5881 7.62345 10.3018 7.64355C8.69654 7.75619 7.18902 7.12085 5.71973 6.55566C4.90043 6.23968 3.976 5.76586 3.08691 6.11719C2.27438 6.44192 1.97869 7.24288 2.04297 8.07227C2.07232 8.41878 2.14902 8.75971 2.27051 9.08496C2.31395 9.20085 2.35803 9.3045 2.41406 9.41016C2.51879 9.60759 2.93403 10.1725 2.68945 10.3828C2.1299 10.8634 1.14457 10.0539 0.802734 9.62012C0.569476 9.42142 0.322232 8.8838 0.213867 8.60156C-0.115922 7.74214 -0.050666 6.77768 0.318359 5.94043C0.670805 5.13967 1.32561 4.51585 2.13574 4.20898Z" fill="#1E1E1E"/>
<path d="M7.69336 0.748047C8.34004 0.213318 9.05352 -0.0608997 9.88867 0.0117188C10.783 0.135747 11.5929 0.611633 12.1445 1.33594C12.2189 1.4331 12.331 1.59142 12.3877 1.7002C12.4638 1.79474 12.5962 2.07087 12.6475 2.18262C13.1385 3.25502 13.2191 4.48045 13.4219 5.64453C13.534 6.32268 13.6812 6.99459 13.8623 7.65723C13.9732 8.05816 14.1063 8.45246 14.2617 8.83789C14.3871 9.14149 14.6538 9.45603 14.6934 9.7832C14.7112 9.93185 14.668 10.0542 14.5752 10.1689C14.3908 10.3969 14.0868 10.5614 13.7959 10.5801C12.4833 10.6636 12.0262 7.32493 11.8682 6.37402C11.7743 5.80985 11.6793 5.24112 11.5762 4.67871C11.4864 4.19017 11.3763 3.66243 11.1797 3.20605C11.079 2.9694 10.9259 2.75892 10.7324 2.5918C10.3895 2.29135 9.98422 2.16636 9.5332 2.20215C8.61678 2.27497 8.10761 2.89217 7.81445 3.72754C7.73024 3.94954 7.69617 4.25321 7.53711 4.43359C7.32164 4.6777 6.97058 4.50708 6.79785 4.30469C6.53002 3.99079 6.53989 3.44167 6.56934 3.05566C6.63487 2.19734 7.0368 1.30532 7.69336 0.748047Z" fill="#1E1E1E"/>
<path d="M5.76429 11.9827C5.89585 11.9628 6.01514 11.9709 6.13954 12.0217C7.23704 12.4694 7.73539 16.0492 7.92803 17.1773C8.03157 17.7837 8.09761 18.4696 8.32917 19.0415C8.49829 19.4592 8.8162 19.8007 9.23092 19.9724C9.65239 20.1468 10.1175 20.1218 10.5331 19.9435C11.2797 19.6233 11.698 18.9524 11.9948 18.2217C12.0469 18.0937 12.1091 17.9162 12.2482 17.8636C12.3269 17.8339 12.4106 17.8515 12.4848 17.8859C12.679 17.9759 12.8807 18.2014 12.946 18.4088C13.1422 19.0326 12.8816 19.7395 12.6025 20.2906C12.5905 20.3138 12.5778 20.3364 12.5644 20.3589C12.1348 21.0918 11.3949 21.6922 10.5721 21.8907C9.17705 22.2273 7.95005 21.7852 7.14644 20.5658C6.42794 19.4755 6.33871 18.3309 6.1731 17.0742C6.00982 15.835 5.66064 14.6376 5.16267 13.4953C5.02842 13.1859 4.59753 12.7754 4.86104 12.417C5.06072 12.1455 5.45061 12.0407 5.76429 11.9827Z" fill="#1E1E1E"/>
<path d="M16.0762 4.32715C16.1723 4.33174 16.2679 4.34042 16.3623 4.35449C17.0236 4.45303 17.6346 4.78079 18.0889 5.28613C18.4183 5.65293 18.6623 6.09013 18.8027 6.56543C18.9129 6.81783 19.0048 7.41653 19 7.68848C18.9626 9.78272 17.354 10.773 15.9521 11.9248C15.5936 12.2218 15.2526 12.5406 14.9316 12.8789C14.6801 13.1409 14.3993 13.4875 14.1934 13.7861C13.9679 14.1128 13.7838 14.4802 13.4922 14.7598C13.406 14.8424 13.208 14.8822 13.0898 14.877C12.8896 14.8671 12.7018 14.7758 12.5693 14.623C12.3826 14.4053 12.2871 14.026 12.3076 13.7422C12.3871 12.6505 14.4063 10.9807 15.1953 10.3389C15.5258 10.07 15.8785 9.82649 16.1963 9.54199C16.6854 9.10403 17.1435 8.53734 17.1807 7.84863C17.2103 7.30061 17.0203 6.88442 16.666 6.48242C16.1176 6.03528 15.7434 5.8566 15.0176 5.83301C14.8256 5.82676 14.5332 5.83359 14.3516 5.81445C14.2114 5.66729 14.0645 5.47844 14.082 5.26562C14.1368 4.59977 15.2081 4.36296 15.8379 4.3291C15.9277 4.32427 16.0085 4.3244 16.0762 4.32715Z" fill="#1E1E1E"/>
<path d="M9.58007 8.95719C10.8035 8.80437 11.9181 9.68419 12.0721 10.9242C12.2261 12.1642 11.3613 13.2967 10.1387 13.4561C8.91155 13.6162 7.7895 12.7354 7.63494 11.4906C7.48038 10.246 8.35208 9.1106 9.58007 8.95719Z" fill="#1E1E1E"/>
<path d="M13.5625 15.8867C13.58 15.8553 13.5836 15.8312 13.6085 15.8299C13.7732 15.8218 14.0099 15.9159 14.1621 15.9623C15.1415 16.2609 16.0972 16.5083 16.8287 15.5806C17.1515 15.1712 17.1932 14.6211 17.1229 14.1208C17.0837 13.8585 17.0199 13.6006 16.9321 13.3508C16.8468 13.1004 16.443 12.3245 16.6492 12.0897C16.9432 11.7553 17.4918 12.0456 17.7722 12.2719C18.401 12.7767 18.8021 13.5176 18.8847 14.3264C18.9864 15.2381 18.7262 16.1534 18.1613 16.8704C17.291 17.9621 16.0004 18.2422 14.7327 17.8687C14.5459 17.8136 14.3481 17.8225 14.1773 17.6974C14.1603 17.6859 14.1557 17.6888 14.1342 17.6876C13.9874 17.0531 13.7832 16.497 13.5625 15.8867Z" fill="#1E1E1E"/>
<path d="M14.1332 17.6873C13.9421 17.7276 11.9986 17.0036 11.6492 16.891C11.279 16.7675 10.903 16.6634 10.5222 16.5793C9.92943 16.452 9.39119 16.3896 8.79096 16.4645C8.68572 16.4775 8.49982 16.446 8.42282 16.3669C8.31452 16.2556 8.29267 16.0556 8.28698 15.9044C8.27423 15.5613 8.32441 15.2313 8.56251 14.9684C8.79965 14.7066 9.17347 14.6578 9.49886 14.6362C10.3997 14.5766 12.9492 15.306 13.5615 15.8864C13.7822 16.4968 13.9864 17.0529 14.1332 17.6873Z" fill="#1E1E1E"/>
</svg>
