<svg width="18" height="18" viewBox="0 0 18 18" fill="none" xmlns="http://www.w3.org/2000/svg">
<path d="M11.332 1.21825C11.6018 0.699116 12.3908 0.986276 12.2638 1.55738L11.2846 5.95961C11.201 6.33563 11.5561 6.66101 11.9234 6.54492L16.2235 5.18584C16.7814 5.00953 17.1362 5.77047 16.6426 6.08448L12.8374 8.50498C12.5124 8.71173 12.5334 9.19289 12.8752 9.37053L16.8769 11.4502C17.396 11.72 17.1088 12.5089 16.5377 12.3819L12.1355 11.4028C11.7595 11.3192 11.4341 11.6742 11.5502 12.0415L12.9093 16.3417C13.0856 16.8995 12.3246 17.2544 12.0106 16.7607L9.59012 12.9555C9.38337 12.6305 8.90221 12.6515 8.72458 12.9933L6.64493 16.995C6.37514 17.5141 5.58617 17.227 5.71319 16.6559L6.69231 12.2536C6.77595 11.8776 6.42086 11.5522 6.05356 11.6683L1.75342 13.0274C1.19556 13.2037 0.840728 12.4428 1.33438 12.1288L5.13957 9.70827C5.46459 9.50152 5.44358 9.02036 5.10178 8.84273L1.1001 6.76308C0.580965 6.49329 0.868125 5.70432 1.43923 5.83134L5.84146 6.81046C6.21748 6.8941 6.54286 6.53901 6.42677 6.17171L5.06769 1.87157C4.89138 1.31371 5.65232 0.958879 5.96633 1.45253L8.38683 5.25772C8.59358 5.58274 9.07474 5.56173 9.25238 5.21993L11.332 1.21825Z" fill="#920E0B"/>
</svg>
