<svg width="155" height="40" viewBox="0 0 155 40" fill="none" xmlns="http://www.w3.org/2000/svg">
<path d="M11.5854 13.5778C11.6849 13.5687 11.7854 13.5725 11.8852 13.5886C12.5329 13.6934 13.1487 14.2947 13.2543 14.9206C13.3547 15.5154 13.3341 16.1313 13.1157 16.6989C12.7336 17.5453 12.1958 18.1441 11.559 18.8073C10.8044 19.5944 9.99739 20.3297 9.14497 21.0095C7.60812 22.2313 5.85382 23.4266 4.63911 24.9929C4.02783 25.7808 3.74595 26.7225 3.90376 27.7253C4.22212 29.7833 6.29026 30.7137 8.17524 30.8005C8.59356 30.8196 9.79015 30.5312 10.104 30.7956C10.4997 31.1294 10.1714 32.0442 9.8393 32.3962C9.08806 33.1932 7.69726 33.6032 6.63032 33.6775C5.03543 33.7905 3.46129 33.2575 2.26216 32.1989C1.00391 31.0864 0.239452 29.5189 0.137156 27.8415C-0.143736 23.4421 3.70347 21.1222 6.65278 18.7292C7.7337 17.8522 8.63855 16.8964 9.55415 15.8552C9.71763 15.6014 9.93938 15.3465 10.1196 15.0974C10.4824 14.5957 10.7767 13.7566 11.437 13.6013C11.4859 13.5898 11.5357 13.5824 11.5854 13.5778Z" fill="white"/>
<path d="M3.93361 7.6527C5.07201 7.22682 6.92662 7.202 8.09669 7.51892C9.38505 7.868 11.0033 8.46638 12.2197 9.01696C13.8049 9.66951 15.7094 10.3866 17.4248 10.5179C18.2202 10.5788 19.534 10.4742 20.2432 10.6322C21.0983 11.3515 20.8533 12.5326 20.2363 13.3109C19.8924 13.7445 19.5043 13.8603 18.9766 13.8968C16.0199 14.1015 13.2444 12.9478 10.5381 11.9203C9.02866 11.3458 7.32562 10.4835 5.68751 11.1224C4.19037 11.7127 3.64527 13.169 3.76368 14.6771C3.81775 15.3071 3.95885 15.9266 4.18263 16.5179C4.26272 16.7288 4.34397 16.9175 4.44728 17.1097C4.64022 17.4687 5.40495 18.4961 4.95411 18.8783C3.92337 19.7514 2.11024 18.2792 1.48048 17.4906C1.05046 17.1292 0.592994 16.151 0.393567 15.6381C-0.213791 14.0755 -0.0938689 12.3224 0.58595 10.8002C1.23513 9.34443 2.44151 8.2107 3.93361 7.6527Z" fill="white"/>
<path d="M14.1724 1.35977C15.3635 0.387693 16.677 -0.111116 18.2153 0.0209069C19.8629 0.246274 21.3554 1.11112 22.3716 2.42813C22.5086 2.60494 22.7144 2.89429 22.8188 3.0922C22.9592 3.26422 23.2031 3.76624 23.2974 3.96915C24.2019 5.91905 24.3506 8.14652 24.7241 10.2631C24.9306 11.496 25.201 12.7175 25.5347 13.9223C25.7389 14.6512 25.9857 15.368 26.272 16.0688C26.5029 16.6208 26.9931 17.1935 27.0659 17.7885C27.0987 18.0584 27.0197 18.2792 26.8491 18.4877C26.5096 18.9022 25.9504 19.2017 25.4145 19.2358C22.996 19.3889 22.154 13.3184 21.8628 11.5893C21.6899 10.5635 21.5147 9.5298 21.3247 8.50723C21.1593 7.61873 20.9566 6.65849 20.5942 5.82852C20.4088 5.39824 20.1264 5.01617 19.77 4.71231C19.1382 4.1661 18.3918 3.93826 17.561 4.00333C15.873 4.13573 14.9351 5.25812 14.395 6.77677C14.2398 7.18052 14.1765 7.73299 13.8833 8.06095C13.4864 8.5046 12.8411 8.19446 12.5229 7.82657C12.0293 7.25571 12.0468 6.25699 12.1011 5.55509C12.2218 3.99445 12.9628 2.37299 14.1724 1.35977Z" fill="white"/>
<path d="M10.622 21.7872C10.8643 21.751 11.0841 21.7658 11.3132 21.8581C13.3349 22.6721 14.2529 29.1808 14.6078 31.232C14.7986 32.3344 14.9202 33.5816 15.3468 34.6213C15.6583 35.3809 16.2439 36.0017 17.0079 36.3139C17.7843 36.631 18.6411 36.5855 19.4066 36.2615C20.7819 35.6793 21.5524 34.4595 22.0993 33.1309C22.1951 32.8981 22.3098 32.5754 22.566 32.4798C22.711 32.4257 22.8652 32.4577 23.0019 32.5203C23.3596 32.6839 23.7312 33.094 23.8514 33.4711C24.2128 34.6052 23.7328 35.8906 23.2186 36.8925C23.1965 36.9347 23.1732 36.9759 23.1484 37.0167C22.3572 38.3493 20.9941 39.4408 19.4784 39.8018C16.9087 40.4137 14.6484 39.6099 13.1681 37.3929C11.8445 35.4106 11.6801 33.3294 11.3751 31.0444C11.0743 28.7914 10.4311 26.6143 9.51373 24.5373C9.26644 23.9749 8.47268 23.2285 8.95811 22.5768C9.32593 22.0833 10.0442 21.8927 10.622 21.7872Z" fill="white"/>
<path d="M29.614 7.86682C31.0317 7.93368 32.3648 8.56105 33.321 9.61096C33.9282 10.2781 34.3779 11.0735 34.6365 11.9381C34.8394 12.397 35.0086 13.4837 34.9998 13.9781C34.9312 17.7862 31.9681 19.5871 29.3855 21.6813C28.7251 22.2212 28.0969 22.8005 27.5056 23.4156C27.0421 23.892 26.5248 24.5221 26.1453 25.0651C25.7299 25.6591 25.3915 26.3282 24.8542 26.8365C24.6954 26.9868 24.3307 27.059 24.113 27.0494C23.7442 27.0316 23.3981 26.8652 23.1541 26.5875C22.8101 26.1916 22.6338 25.5019 22.6716 24.986C22.8177 23.001 26.5374 19.9646 27.991 18.7975C28.5999 18.3085 29.2501 17.8657 29.8357 17.3483C30.7365 16.552 31.5797 15.5221 31.6482 14.2701C31.7029 13.2738 31.3534 12.5166 30.7009 11.7858C29.6906 10.9727 29.0009 10.648 27.6638 10.6051C27.31 10.5937 26.7709 10.6058 26.4363 10.5709C26.1781 10.3035 25.9091 9.96156 25.9412 9.57482C26.0558 8.19106 28.6156 7.82673 29.614 7.86682Z" fill="white"/>
<path d="M17.6506 16.2862C19.9044 16.0084 21.9576 17.6081 22.2412 19.8627C22.5248 22.1172 20.9318 24.1763 18.6796 24.4661C16.4191 24.7572 14.3522 23.1557 14.0675 20.8925C13.7828 18.6295 15.3885 16.5652 17.6506 16.2862Z" fill="white"/>
<path d="M24.9849 28.8847C25.0172 28.8277 25.0238 28.7839 25.0696 28.7815C25.3729 28.7667 25.8091 28.9378 26.0894 29.0222C27.8936 29.5652 29.654 30.0148 31.0016 28.3282C31.5962 27.5838 31.673 26.5836 31.5435 25.6741C31.4714 25.197 31.3538 24.7282 31.1921 24.2739C31.0349 23.8187 30.2911 22.408 30.6709 21.9811C31.2125 21.3732 32.2231 21.901 32.7396 22.3124C33.8979 23.2302 34.6367 24.5772 34.7889 26.0479C34.9764 27.7055 34.4971 29.3697 33.4564 30.6732C31.8532 32.6582 29.4758 33.1675 27.1406 32.4884C26.7963 32.3882 26.432 32.4043 26.1174 32.1768C26.0861 32.1561 26.0776 32.1613 26.038 32.159C25.7676 31.0055 25.3914 29.9944 24.9849 28.8847Z" fill="white"/>
<path d="M26.038 32.159C25.6859 32.2322 22.1058 30.9158 21.4622 30.7111C20.7803 30.4866 20.0875 30.2974 19.3862 30.1444C18.2942 29.913 17.3027 29.7996 16.197 29.9357C16.0031 29.9594 15.6607 29.9021 15.5188 29.7583C15.3193 29.5559 15.2791 29.1923 15.2686 28.9174C15.2451 28.2936 15.3376 27.6936 15.7762 27.2156C16.213 26.7395 16.9016 26.6509 17.501 26.6116C19.1605 26.5032 23.857 27.8295 24.9849 28.8847C25.3914 29.9944 25.7676 31.0055 26.038 32.159Z" fill="white"/>
<path d="M64.6641 20.3122C64.6641 25.5922 61.2081 29.2882 56.2881 29.2882C51.3921 29.2882 47.9841 25.5922 47.9841 20.3122C47.9841 15.0562 51.4161 11.3362 56.3121 11.3362C61.2321 11.3362 64.6641 15.0322 64.6641 20.3122ZM62.1921 20.3122C62.1921 16.2802 59.8401 13.6162 56.3121 13.6162C52.7841 13.6162 50.4561 16.2802 50.4561 20.3122C50.4561 24.3442 52.7841 27.0322 56.3121 27.0322C59.8401 27.0322 62.1921 24.3202 62.1921 20.3122Z" fill="white"/>
<path d="M65.8004 23.1442C65.8004 19.4722 68.1284 16.9282 71.5604 16.9282C74.5124 16.9282 76.5764 18.6082 76.9844 21.2242H74.7284C74.3444 19.7362 73.1444 18.9442 71.6324 18.9442C69.4964 18.9442 68.0324 20.5762 68.0324 23.1202C68.0324 25.6402 69.4004 27.2722 71.5364 27.2722C73.1444 27.2722 74.3444 26.4322 74.7524 25.0402H77.0084C76.5524 27.5842 74.3684 29.2882 71.5364 29.2882C68.0804 29.2882 65.8004 26.8402 65.8004 23.1442Z" fill="white"/>
<path d="M81.9807 29.0002H79.7247V19.1602H77.4207V17.2642H79.7247V13.5922H81.9807V17.2642H84.2847V19.1602H81.9807V29.0002Z" fill="white"/>
<path d="M84.7041 23.1202C84.7041 19.4962 87.2961 16.9522 90.8241 16.9522C94.3281 16.9522 96.9201 19.4962 96.9201 23.1202C96.9201 26.7442 94.3281 29.2882 90.8241 29.2882C87.2961 29.2882 84.7041 26.7442 84.7041 23.1202ZM86.9841 23.1202C86.9841 25.5682 88.5441 27.2722 90.8241 27.2722C93.0801 27.2722 94.6641 25.5682 94.6641 23.1202C94.6641 20.6722 93.0801 18.9682 90.8241 18.9682C88.5441 18.9682 86.9841 20.6722 86.9841 23.1202Z" fill="white"/>
<path d="M98.6974 34.2562V17.2642H100.737L100.905 19.3762C101.697 17.7682 103.281 16.9282 105.153 16.9282C108.513 16.9282 110.601 19.4482 110.601 23.0482C110.601 26.6242 108.633 29.3122 105.153 29.3122C103.281 29.3122 101.721 28.5202 100.953 27.0802V34.2562H98.6974ZM100.977 23.1442C100.977 25.5442 102.369 27.2722 104.673 27.2722C106.977 27.2722 108.345 25.5442 108.345 23.1442C108.345 20.7202 106.977 18.9922 104.673 18.9922C102.369 18.9922 100.977 20.6962 100.977 23.1442Z" fill="white"/>
<path d="M120.199 17.2642H122.431V29.0002H120.415L120.175 27.2242C119.503 28.4482 117.943 29.2882 116.215 29.2882C113.479 29.2882 111.943 27.4402 111.943 24.5602V17.2642H114.199V23.8162C114.199 26.3362 115.279 27.2962 117.007 27.2962C119.071 27.2962 120.199 25.9762 120.199 23.4562V17.2642Z" fill="white"/>
<path d="M123.79 25.5922H125.95C125.95 26.7922 126.862 27.5122 128.35 27.5122C129.934 27.5122 130.846 26.8642 130.846 25.7842C130.846 24.9922 130.462 24.5122 129.238 24.2002L127.174 23.7202C125.086 23.2162 124.102 22.1842 124.102 20.4562C124.102 18.2962 125.926 16.9282 128.518 16.9282C131.086 16.9282 132.766 18.3682 132.814 20.6002H130.654C130.606 19.4242 129.814 18.6802 128.446 18.6802C127.03 18.6802 126.238 19.3042 126.238 20.3842C126.238 21.1762 126.814 21.7042 127.966 21.9922L130.03 22.4962C132.022 22.9762 133.006 23.8882 133.006 25.6402C133.006 27.8722 131.086 29.2882 128.302 29.2882C125.542 29.2882 123.79 27.8242 123.79 25.5922Z" fill="white"/>
<path d="M145.838 29.0002L139.238 11.6482H141.758L145.982 22.7362C146.366 23.7202 146.702 24.7042 147.062 26.0002C147.47 24.6322 147.878 23.4802 148.166 22.7122L152.366 11.6482H154.814L148.286 29.0002H145.838Z" fill="white"/>
</svg>
